<svg width="146" height="46" viewBox="0 0 146 46" fill="none" xmlns="http://www.w3.org/2000/svg">
<path d="M66.293 8.27344H71.055L86.2199 29.6398H86.4324V8.27344H91.1944V37.2834H86.3938L71.2675 15.917H71.055V37.2834H66.293V8.27344Z" fill="white"/>
<path d="M96.084 25.9058C96.084 18.534 101.812 14.5293 107.454 14.5293C113.097 14.5293 118.825 18.534 118.825 25.9058C118.825 33.2775 113.097 37.2822 107.454 37.2822C101.812 37.2822 96.084 33.2775 96.084 25.9058ZM107.454 33.0263C111.007 33.0263 114.228 30.4177 114.228 25.9058C114.228 21.3938 111.007 18.7852 107.454 18.7852C103.902 18.7852 100.638 21.3938 100.638 25.9058C100.638 30.4177 103.898 33.0263 107.454 33.0263Z" fill="white"/>
<path d="M141.366 44.7926V33.4871H141.236C140.434 35.1863 137.656 37.3411 133.651 37.3411C128.471 37.3411 123.031 33.5726 123.031 26.1637C123.031 18.7548 128.471 14.9863 133.651 14.9863C137.656 14.9863 140.439 17.1411 141.236 18.8403H141.366V15.404H146V44.5802H141.366V44.7926ZM134.54 33.1929C138.081 33.1929 141.497 30.7913 141.497 26.1542C141.497 21.5171 138.081 19.1203 134.54 19.1203C130.998 19.1203 127.631 21.5219 127.631 26.1542C127.631 30.7865 131.047 33.1929 134.54 33.1929Z" fill="white"/>
<path d="M46.9944 5.78599C43.9319 2.72185 39.7822 1 35.4521 1C31.1219 1 26.9723 2.72185 23.9097 5.78599C21.2543 8.44744 19.6073 11.9282 19.2188 15.6357C19.228 15.6357 19.2373 15.6357 19.2465 15.6357C19.4177 15.6542 19.5888 15.6773 19.7554 15.7051C19.7785 15.7051 19.8017 15.7144 19.8248 15.7144C19.9728 15.7375 20.1209 15.7607 20.2643 15.7884C20.3013 15.7977 20.3429 15.8023 20.3799 15.8116C20.713 15.8764 21.0461 15.9504 21.3792 16.0337C21.4162 16.043 21.4532 16.0523 21.4902 16.0615C21.629 16.0985 21.7678 16.1356 21.9066 16.1772C21.9343 16.1865 21.9667 16.1957 21.9945 16.2004C22.1564 16.2513 22.3229 16.3022 22.4848 16.3531C22.5126 16.3624 22.5404 16.3716 22.5635 16.3809C22.7023 16.4272 22.8364 16.4735 22.9706 16.5244C23.0076 16.5383 23.0492 16.5521 23.0862 16.566C23.2435 16.6262 23.4055 16.6864 23.5627 16.7558C25.5428 17.5751 27.3423 18.7785 28.8597 20.2967C30.3771 21.8149 31.5753 23.6154 32.3988 25.5965C33.2176 27.5775 33.6432 29.702 33.6432 31.8497V44.5599C36.0211 44.5599 38.3804 44.0878 40.5779 43.1759C42.7799 42.2641 44.7785 40.9264 46.4624 39.237C48.1463 37.5522 49.4833 35.548 50.3946 33.3448C51.306 31.1415 51.7779 28.7763 51.7779 26.3926V17.3251C51.7779 12.9927 50.0569 8.83625 46.999 5.77211L46.9944 5.78599Z" stroke="white" stroke-width="2"/>
<path d="M19.2226 15.6404C18.5934 15.5663 17.9596 15.5293 17.3212 15.5293C12.9911 15.5293 8.84139 17.2511 5.77885 20.3153C2.71632 23.3794 1 27.5359 1 31.8683V37.3162C1 39.2417 1.76332 41.0885 3.12342 42.454C4.48352 43.8148 6.32937 44.5831 8.25386 44.5831H19.1347V17.3483C19.1347 16.779 19.1624 16.2097 19.2226 15.645V15.6404Z" stroke="white" stroke-width="2"/>
<path d="M33.6432 31.8683C33.6432 29.7207 33.2222 27.5961 32.3988 25.6151C31.5799 23.634 30.3771 21.8289 28.8597 20.3153C27.3423 18.7971 25.5428 17.5937 23.5627 16.7744C23.4055 16.7096 23.2482 16.6448 23.0862 16.5847C23.0492 16.5708 23.0076 16.5569 22.9706 16.543C22.8364 16.4921 22.6977 16.4458 22.5635 16.3995C22.5357 16.3902 22.508 16.381 22.4848 16.3717C22.3229 16.3162 22.161 16.2653 21.9945 16.219C21.9667 16.2097 21.9343 16.2005 21.9066 16.1958C21.7678 16.1542 21.629 16.1172 21.4902 16.0801C21.4532 16.0709 21.4162 16.0616 21.3792 16.0524C21.0507 15.969 20.7176 15.8904 20.3799 15.8302C20.3429 15.8209 20.3013 15.8163 20.2643 15.807C20.1162 15.7793 19.9728 15.7561 19.8248 15.733C19.8017 15.733 19.7785 15.7237 19.7554 15.7237C19.5842 15.696 19.4177 15.6774 19.2465 15.6543C19.2373 15.6543 19.228 15.6543 19.2188 15.6543C19.1586 16.219 19.1309 16.7883 19.1309 17.3576V44.5924H33.6386V31.8822L33.6432 31.8683Z" stroke="white" stroke-width="2"/>
</svg>
