<?xml version="1.0" encoding="UTF-8" standalone="no"?>
<!-- Created with Inkscape (http://www.inkscape.org/) -->

<svg
   width="300mm"
   height="100mm"
   viewBox="0 0 300 100"
   version="1.1"
   id="svg5"
   inkscape:version="1.2.1 (ef4d3fba62, 2022-07-19, custom)"
   sodipodi:docname="NoqLogo"
   xmlns:inkscape="http://www.inkscape.org/namespaces/inkscape"
   xmlns:sodipodi="http://sodipodi.sourceforge.net/DTD/sodipodi-0.dtd"
   xmlns="http://www.w3.org/2000/svg"
   xmlns:svg="http://www.w3.org/2000/svg">
  <sodipodi:namedview
     id="namedview7"
     pagecolor="#ffffff"
     bordercolor="#666666"
     borderopacity="1.0"
     inkscape:showpageshadow="2"
     inkscape:pageopacity="0.0"
     inkscape:pagecheckerboard="0"
     inkscape:deskcolor="#d1d1d1"
     inkscape:document-units="mm"
     showgrid="false"
     inkscape:zoom="0.72782688"
     inkscape:cx="397.07245"
     inkscape:cy="12.365578"
     inkscape:window-width="1920"
     inkscape:window-height="995"
     inkscape:window-x="0"
     inkscape:window-y="0"
     inkscape:window-maximized="1"
     inkscape:current-layer="layer1" />
  <defs
     id="defs2" />
  <g
     inkscape:label="Layer 1"
     inkscape:groupmode="layer"
     id="layer1">
    <path
       d="m 138.34644,23.591249 h 8.66034 l 27.57911,38.857601 h 0.38656 V 23.591249 h 8.66034 V 76.34953 h -8.73046 L 147.39307,37.49204 h -0.38629 v 38.85749 h -8.66034 z"
       fill="#ffffff"
       id="path9"
       style="stroke-width:0.264583" />
    <path
       d="m 192.52464,55.65964 c 0,-13.40642 10.4177,-20.6895 20.67877,-20.6895 10.26081,0 20.67851,7.28308 20.67851,20.6895 0,13.40644 -10.4177,20.68963 -20.67851,20.68963 -10.26107,0 -20.67877,-7.28319 -20.67877,-20.68963 z m 20.67877,12.94977 c 6.45981,0 12.31821,-4.74424 12.31821,-12.94977 0,-8.20552 -5.8584,-12.94949 -12.31821,-12.94949 -6.46006,0 -12.39678,4.74398 -12.39678,12.94949 0,8.20553 5.92799,12.94977 12.39678,12.94977 z"
       fill="#ffffff"
       id="path11"
       style="fill:#000000;stroke-width:0.264583" />
    <path
       d="M 274.87779,90.00547 V 69.44496 h -0.23733 c -1.45839,3.09034 -6.5106,7.00909 -13.79458,7.00909 -9.41917,0 -19.31273,-6.8535 -19.31273,-20.32767 0,-13.47391 9.89356,-20.32736 19.31273,-20.32736 7.28398,0 12.34493,3.91869 13.79458,7.00876 h 0.23733 v -6.24916 h 8.42618 v 53.06057 h -8.42618 z M 262.46248,68.90999 c 6.44049,0 12.65264,-4.36775 12.65264,-12.80082 0,-8.43305 -6.21215,-12.79206 -12.65264,-12.79206 -6.44049,0 -12.5648,4.36773 -12.5648,12.79206 0,8.4246 6.21216,12.80082 12.5648,12.80082 z"
       fill="#ffffff"
       id="path13"
       style="fill:#000000;stroke-width:0.264583" />
    <path
       d="m 103.24814,19.069549 c -5.569477,-5.57252 -13.116187,-8.70392 -20.991247,-8.70392 -7.87479,0 -15.4215,3.1314 -20.99098,8.70392 -4.82944,4.84021 -7.824531,11.170341 -8.531231,17.912901 0.0169,0 0.0336,0 0.0505,0 0.31115,0.0336 0.62257,0.0757 0.92551,0.12621 0.0421,0 0.0841,0.0169 0.12621,0.0169 0.269081,0.0421 0.538431,0.0841 0.799041,0.13467 0.0675,0.0169 0.14314,0.0251 0.21035,0.0421 0.60589,0.11774 1.21152,0.25268 1.81742,0.40402 0.0672,0.0169 0.13467,0.0336 0.20188,0.0505 0.25241,0.0675 0.50482,0.13467 0.75723,0.21034 0.0505,0.0169 0.10928,0.0339 0.15981,0.0423 0.29448,0.0926 0.59743,0.18495 0.89191,0.27755 0.0505,0.0169 0.10081,0.0339 0.14288,0.0505 0.25241,0.0841 0.49635,0.16854 0.7403,0.26114 0.0675,0.0251 0.14314,0.0503 0.21034,0.0757 0.28628,0.10954 0.58076,0.21882 0.86678,0.34502 3.60071,1.49013 6.87361,3.6785 9.63321,6.4397 2.75961,2.76092 4.93845,6.03541 6.43626,9.63823 1.48907,3.60284 2.26298,7.46654 2.26298,11.37232 v 23.11506 c 4.32461,0 8.61536,-0.85856 12.61163,-2.51697 4.00473,-1.65815 7.63931,-4.091 10.701867,-7.16333 3.06228,-3.06415 5.4938,-6.70904 7.15115,-10.7159 1.65735,-4.00684 2.51566,-8.30817 2.51566,-12.64338 V 40.05499 c 0,-7.87911 -3.12975,-15.438201 -8.69103,-21.010751 z"
       fill="#4b5cfa"
       id="path15"
       style="stroke-width:0.264583" />
    <path
       d="m 52.743152,36.99092 c -1.14406,-0.13494 -2.29685,-0.20217 -3.45784,-0.20217 -7.87487,0 -15.42161,3.13137 -20.99122,8.70402 -5.56961,5.57238 -8.69096,13.13153 -8.69096,21.01056 v 9.90758 c 0,3.50176 1.38819,6.86065 3.8617,9.34376 2.47351,2.47492 5.83044,3.87218 9.33038,3.87218 h 19.78813 V 40.09686 c 0,-1.03531 0.0505,-2.07063 0.15981,-3.09774 z"
       fill="#19d4ee"
       id="path17"
       style="stroke-width:0.264583" />
    <path
       d="m 78.967593,66.50359 c 0,-3.90604 -0.76544,-7.76975 -2.26298,-11.37258 -1.48934,-3.60257 -3.67665,-6.88552 -6.43626,-9.63824 -2.7596,-2.76092 -6.03223,-4.94956 -9.63321,-6.43943 -0.28601,-0.118 -0.57203,-0.23574 -0.86651,-0.34528 -0.0675,-0.0251 -0.14314,-0.0505 -0.21034,-0.0757 -0.24395,-0.0926 -0.49636,-0.17674 -0.74057,-0.26088 -0.0503,-0.0169 -0.10081,-0.0336 -0.14288,-0.0505 -0.29448,-0.10107 -0.58896,-0.19367 -0.89191,-0.27781 -0.0505,-0.0169 -0.10927,-0.0336 -0.15981,-0.0421 -0.25241,-0.0757 -0.50482,-0.14314 -0.75723,-0.21034 -0.0672,-0.0169 -0.13468,-0.0339 -0.20188,-0.0505 -0.59743,-0.15161 -1.20306,-0.29475 -1.81716,-0.40402 -0.0675,-0.0169 -0.14314,-0.0254 -0.21034,-0.0423 -0.26935,-0.0503 -0.53023,-0.0926 -0.799311,-0.13467 -0.0421,0 -0.0841,-0.0167 -0.12621,-0.0167 -0.31141,-0.0505 -0.61409,-0.0841 -0.92551,-0.12621 -0.0169,0 -0.0336,0 -0.0505,0 -0.10927,1.02685 -0.15981,2.06216 -0.15981,3.09774 V 89.6438 H 78.959423 V 66.52873 Z"
       fill="#002cd9"
       id="path19"
       style="stroke-width:0.264583" />
    <path
       d="m 138.34644,23.591249 h 8.66034 l 27.57911,38.857601 h 0.38656 V 23.591249 h 8.66034 V 76.34953 h -8.73046 L 147.39307,37.49204 h -0.38629 v 38.85749 h -8.66034 z"
       fill="#ffffff"
       id="path191"
       style="stroke-width:0.264583" />
    <path
       d="m 138.34644,23.591249 h 8.66034 l 27.57911,38.857601 h 0.38656 V 23.591249 h 8.66034 V 76.34953 h -8.73046 L 147.39307,37.49204 h -0.38629 v 38.85749 h -8.66034 z"
       fill="#ffffff"
       id="path193"
       style="fill:#000000;stroke-width:0.264583" />
  </g>
</svg>
