<svg width="32" height="32" viewBox="0 0 32 32" fill="none" xmlns="http://www.w3.org/2000/svg">
<path d="M21.7144 3C24.4423 3 27.0585 4.03441 28.9875 5.87568C30.9164 7.71694 32.0001 10.2142 32.0001 12.8182V18.2673C32.0001 19.7006 31.7043 21.1199 31.1297 22.4441C30.5551 23.7683 29.7128 24.9715 28.6511 25.985C27.5893 26.9985 26.3288 27.8025 24.9415 28.351C23.5543 28.8995 22.0674 29.1818 20.5658 29.1818H11.4287V12.8182C11.4287 10.2142 12.5124 7.71694 14.4413 5.87568C16.3703 4.03441 18.9865 3 21.7144 3V3Z" fill="#4B5CFA"/>
<path d="M10.2857 11.7271C11.6364 11.7271 12.9739 11.981 14.2218 12.4744C15.4698 12.9678 16.6036 13.691 17.5588 14.6027C18.5139 15.5144 19.2715 16.5968 19.7884 17.788C20.3053 18.9792 20.5714 20.2559 20.5714 21.5452V29.1816H4.57141C3.359 29.1816 2.19624 28.7218 1.33894 27.9035C0.48163 27.0852 0 25.9753 0 24.8179V21.5452C0 18.9413 1.08367 16.444 3.01261 14.6027C4.94155 12.7615 7.55775 11.7271 10.2857 11.7271V11.7271Z" fill="#19D4EE"/>
<path fill-rule="evenodd" clip-rule="evenodd" d="M20.5715 29.182C20.5696 29.182 20.5677 29.182 20.5658 29.182H11.4287V12.8184C11.4287 12.4748 11.4476 12.1331 11.4848 11.7944C12.4238 11.8996 13.345 12.1281 14.222 12.4749C15.4699 12.9683 16.6038 13.6915 17.5589 14.6032C18.514 15.5149 19.2717 16.5972 19.7886 17.7884C20.3055 18.9796 20.5715 20.2563 20.5715 21.5457V29.182Z" fill="#002CD9"/>
</svg>
